 <svg
            width="39"
            height="57"
            viewBox="0 0 39 57"
            fill="none"
            xmlns="http://www.w3.org/2000/svg"
            preserveAspectRatio="none"
          >
            <path
              d="M34.9492 3.07558C35.0047 3.00935 35.0502 2.9304 35.0852 2.84307C35.1074 2.79665 35.1267 2.74789 35.142 2.69784C35.2888 2.21776 35.1299 1.77798 35.0349 1.51528L35.02 1.47376C34.9448 1.193 34.7794 0.98458 34.5778 0.924949C34.4945 0.899634 34.41 0.90206 34.3299 0.92855C34.193 0.973761 34.0683 1.08939 33.9798 1.26351C33.6598 1.89123 33.9093 2.66598 34.1419 3.00573C34.3596 3.32441 34.711 3.35876 34.9492 3.07558ZM34.4401 1.4858C34.585 1.4358 34.7379 1.48159 34.8486 1.56348L34.4856 1.79424L34.4401 1.4858ZM34.4864 1.80027L34.9218 1.62797C34.9605 1.66833 34.9915 1.71227 35.0128 1.75509C35.0228 1.78341 35.0341 1.84362 35.0357 1.92138L34.7705 2.16474L34.4937 1.84904L34.4864 1.80027Z"
              fill="#535353"
            ></path>
            <path
              d="M1.91027 29.5441C1.9139 29.5664 1.91832 29.5881 1.92316 29.6098C1.9968 29.9466 2.15736 30.1628 2.36541 30.3116C2.45636 30.6767 2.69943 30.9255 2.97226 30.8972C3.00124 30.8948 3.02982 30.8918 3.05758 30.8888C3.50709 30.855 4.26726 30.9918 4.83508 31.1623C4.81899 31.2617 4.81415 31.3677 4.82261 31.4749C4.85722 31.9273 5.11114 32.2695 5.41498 32.2755C5.90794 32.284 6.28421 32.3237 6.56348 32.3743C6.39004 32.6177 6.32444 32.9997 6.41097 33.3479C6.52646 33.8117 6.70957 34.1166 6.95625 34.2539C7.20092 34.3889 7.42025 34.3202 7.60094 34.2087C8.05205 35.0274 9.28104 35.5305 10.3724 35.8022C10.3929 35.9696 10.442 36.1281 10.5225 36.257C10.6706 36.4937 10.8847 36.5931 11.1032 36.519C11.2903 36.4522 11.4473 36.3076 11.5656 36.107C11.5938 36.2311 11.6304 36.3486 11.6827 36.4546C11.9 36.8956 12.2248 36.9938 12.4964 37.0088C12.5049 37.0769 12.5185 37.1444 12.5374 37.2094C12.6115 37.4624 12.7584 37.6504 12.9367 37.7203C13.067 37.7721 13.22 37.9275 13.3966 38.107C13.7343 38.4504 14.1974 38.9221 14.8687 38.9516C14.8803 39.001 14.8936 39.051 14.9097 39.0998C15.0091 39.4053 15.1657 39.5866 15.3194 39.6987C15.2534 39.9089 15.2429 40.1517 15.2944 40.3764C15.3588 40.6589 15.5126 40.8764 15.7049 40.9553C15.8345 41.0089 15.95 41.0294 16.0534 41.0258C16.0546 41.0372 16.0558 41.0493 16.0574 41.0613C16.1057 41.4348 16.2417 41.7445 16.4506 41.9541C16.8478 42.3529 17.385 42.2698 17.8631 42.1385C17.9867 42.2975 18.1512 42.3795 18.3215 42.3523C18.3637 42.3457 18.4011 42.3403 18.4341 42.3367C18.4595 42.5463 18.5118 42.7987 18.6301 43.0566C18.7665 43.3542 19.008 43.5018 19.2442 43.4319C19.3239 43.4072 19.3935 43.362 19.4551 43.303C19.6362 43.5421 19.8889 43.5849 20.1038 43.4367C20.1183 43.4379 20.1316 43.4439 20.1456 43.4433C20.5267 43.4355 20.7203 43.6849 21.0306 44.1283C21.27 44.4705 21.6121 44.9597 22.1042 45.0356C22.1042 45.1958 22.1332 45.3579 22.1924 45.503C22.3453 45.8771 22.6539 46.0332 22.928 45.8735C22.9767 45.8452 23.0193 45.8205 23.0568 45.7994C23.1839 46.0627 23.3964 46.3802 23.7751 46.6784C23.9546 46.8199 24.1687 46.8157 24.3457 46.6711C24.4556 46.5814 24.5421 46.444 24.596 46.282C24.7075 46.3814 24.8302 46.5001 24.928 46.5958C25.417 47.07 26.126 47.7591 26.823 47.7055C27.1707 49.4459 28.6182 50.2345 30.0279 51.0026C31.568 51.8418 33.3141 52.793 34.2473 54.9491C34.3693 55.2304 34.585 55.3877 34.8075 55.3575C34.9319 55.3425 35.0445 55.2672 35.1363 55.1533C35.0687 55.5479 35.187 55.8913 35.2546 56.0732C35.3512 56.463 35.6168 56.7088 35.8977 56.654C35.9979 56.6341 36.084 56.5696 36.1613 56.4889C36.3411 56.4931 36.5194 56.3901 36.6393 56.1684C36.6667 56.1178 36.6973 56.0805 36.7226 56.0449C37.1037 55.5184 37.0816 55.0184 36.9854 54.6726C37.0365 54.4949 37.0498 54.2949 37.0188 54.1015C37.0293 53.9563 37.0731 53.6545 37.1061 53.4268C37.2184 52.6533 37.344 51.7586 37.2631 50.9893C37.3536 51.1394 37.474 51.2502 37.6148 51.2821C37.684 51.2984 37.7532 51.2948 37.8192 51.2749C37.8526 51.2677 37.8856 51.258 37.917 51.2436C38.2591 51.0857 38.3677 50.6026 38.4329 50.314L38.4438 50.2658C38.5295 49.9893 38.517 49.664 38.4068 49.4026C38.2836 49.1116 38.0611 48.9501 37.8321 48.9863C37.8031 48.9911 37.7754 48.9983 37.748 49.0068C37.3182 49.1489 37.1327 49.8104 37.1065 50.2701C37.0574 50.1393 36.9983 50.0158 36.9242 49.9038C36.8309 49.7616 36.7005 49.6152 36.5234 49.517C36.5077 49.4706 36.4888 49.423 36.4663 49.3766C36.3645 49.164 36.1866 48.9531 35.8888 49.0013C35.7878 48.8628 35.6582 48.779 35.5214 48.7652C35.418 48.667 35.2288 48.3405 35.1065 48.126C35.2099 47.7917 35.1838 47.3941 35.0192 47.091C34.9238 46.9157 34.7813 46.8067 34.6316 46.7657C34.6155 46.6211 34.5789 46.4814 34.517 46.3615C34.3958 46.126 34.2043 45.9946 34.0055 46.0115C33.9455 46.0163 33.8908 46.0284 33.8397 46.0452C33.6236 46.1169 33.4855 46.2808 33.4039 46.4205C33.3849 46.4525 33.3773 46.488 33.3616 46.5211C33.3535 46.4995 33.3431 46.4735 33.3362 46.4543C33.3133 46.1308 33.1741 45.8374 32.9584 45.7091C32.935 45.635 32.9032 45.5669 32.8658 45.5042C32.8674 45.4723 32.871 45.4398 32.8702 45.4079C32.8614 44.9584 32.6296 44.5633 32.3314 44.512C32.3077 44.5078 32.2714 44.5066 32.2296 44.5096C32.1994 44.3554 32.1467 44.2036 32.0505 44.0656C31.8449 43.7711 31.6066 43.7415 31.3917 43.8126C31.1821 43.8813 30.9994 44.0428 30.8851 44.1524C30.809 44.1928 30.733 44.2458 30.6581 44.3102C30.5603 44.2416 30.473 44.1723 30.4122 44.1072C30.3784 43.8741 30.2839 43.6626 30.1402 43.5301C30.0147 43.4138 29.8702 43.3753 29.7326 43.4066C29.5857 43.1849 29.3768 43.0885 29.176 43.1548C29.141 43.1662 29.1064 43.1825 29.0722 43.2042C29.04 42.9168 28.9217 42.6578 28.7353 42.5295C28.6774 42.4891 28.6114 42.4632 28.5438 42.4523V42.4511L28.4488 42.4349C28.4098 42.4276 28.3378 42.4222 28.2569 42.4307C28.207 42.3801 28.1547 42.3373 28.1003 42.2981C28.0371 42.1843 27.939 42.062 27.7917 41.9957C27.718 41.927 27.6379 41.8825 27.5542 41.862C27.5482 41.8565 27.5418 41.8523 27.5353 41.8481C27.5096 41.8306 27.4822 41.8276 27.4556 41.8162C27.1731 41.2379 26.6057 40.9553 26.05 40.6836C25.7719 40.5481 25.3196 40.327 25.1739 40.1553C25.1445 39.9547 25.0701 39.7734 24.9618 39.6426L24.7502 39.3884C24.2761 38.8191 23.8914 38.3589 23.5348 37.9673C23.4797 37.8347 23.4012 37.698 23.2861 37.5612C23.1896 37.4456 23.0733 37.3853 22.9545 37.3727C22.305 36.7721 21.7171 36.4648 21.0133 36.372C20.8756 36.0293 20.6286 35.8877 20.439 35.8088C20.4205 35.7094 20.3899 35.6136 20.3485 35.5268C20.0821 34.9726 19.781 34.7931 19.5167 34.7708C19.5074 34.6377 19.4816 34.5377 19.47 34.4979C19.433 34.372 19.3014 34.0172 18.9826 33.9647C18.95 33.8443 18.9054 33.7328 18.8498 33.6304C18.6748 33.3069 18.4418 33.172 18.2052 33.1183C18.1573 32.89 18.053 32.6948 17.9082 32.584C17.7029 32.4255 17.5243 32.4249 17.3927 32.4683C17.3613 32.4792 17.3327 32.4918 17.307 32.5057C17.1987 32.5641 17.1218 32.6557 17.0571 32.7527C16.818 32.44 16.6977 32.2346 16.6289 32.1171C16.6051 32.0767 16.577 32.0291 16.5448 31.981C16.5593 31.9364 16.5721 31.8948 16.5834 31.8581C16.7013 31.4785 16.6297 31.0285 16.4108 30.7689C16.2381 30.5646 16.0522 30.5273 15.9403 30.508C15.8788 30.4821 15.8168 30.4767 15.7552 30.4797C15.5061 30.2339 15.0952 30.2978 14.5544 30.3918C14.4828 30.4038 14.3982 30.4189 14.3149 30.4321C14.2204 30.2646 14.1129 30.1809 14.032 30.1363C14.0296 30.1285 14.0288 30.1201 14.0268 30.1122C13.9194 29.758 13.6465 29.5068 13.3882 29.5471C13.3596 29.5514 13.3322 29.558 13.3065 29.567C13.2401 29.5887 13.1849 29.6267 13.1346 29.6712C13.2695 29.3929 13.3407 29.0297 13.1202 28.6122C13.0968 28.5676 12.9515 28.3122 12.7177 28.2736C12.636 28.2429 12.5415 28.2339 12.428 28.2712C12.3407 28.3001 12.2437 28.3543 12.1358 28.4435C12.1153 28.4616 12.0924 28.4845 12.0702 28.5049C12.001 28.4772 11.9298 28.4694 11.8565 28.4809C11.8678 28.4134 11.8795 28.3465 11.8811 28.264C11.8895 28.1947 11.8936 28.117 11.8887 28.0345C11.9149 27.9519 11.9358 27.8537 11.9423 27.7423C11.9914 27.6369 12.0175 27.5242 12.0284 27.4103C12.259 27.2736 12.4481 27.0838 12.5982 26.9055C12.7089 27.035 12.8489 27.1055 12.995 27.0965C13.1173 27.235 13.2743 27.3043 13.4381 27.2718C13.6992 27.2218 13.9005 26.9242 13.9508 26.5579C14.1604 26.4675 14.2912 26.2904 14.3709 26.1302C14.4147 26.0416 14.4477 25.9513 14.4711 25.8603C14.6111 25.8567 14.7488 25.7826 14.8574 25.641C14.9182 25.5964 14.9725 25.5368 15.0188 25.4663C15.1902 25.5187 15.3741 25.4591 15.5194 25.2826C15.5665 25.2247 15.6063 25.1591 15.6393 25.0868C15.649 25.0808 15.661 25.0723 15.6719 25.0651C15.6912 25.1 15.7061 25.1332 15.7279 25.1687C15.8413 25.3537 16.0015 25.4609 16.1697 25.4621C16.5379 25.4645 16.7271 25.1771 16.8072 25.0061C16.9061 24.7922 16.9319 24.5735 16.9263 24.3777C17.189 24.5386 17.5025 24.6368 17.8724 24.5259C18.1786 24.4241 18.3883 24.0054 18.3537 23.5397C18.3404 23.3638 18.3327 23.2024 18.3283 23.0566C18.5054 23.0445 18.7303 22.915 18.87 22.4132C19.0704 22.5391 19.3054 22.5716 19.5364 22.3156C19.7368 22.0927 19.8 21.8144 19.7931 21.5162C19.8354 21.5065 19.8776 21.4945 19.9203 21.474C20.1557 21.3674 20.3118 21.0565 20.3364 20.7005C20.3956 20.571 20.4334 20.4204 20.441 20.2589C20.4438 20.1993 20.4459 20.1433 20.4475 20.0908C20.8463 19.9788 21.2917 19.7704 21.5038 19.2324C21.5151 19.2312 21.5272 19.2294 21.5388 19.2264C21.6 19.2794 21.6668 19.3155 21.7384 19.33C21.8966 19.3625 22.2813 19.3475 22.4342 18.5155L22.4467 18.4474C22.697 18.4655 22.9976 18.3673 23.3542 18.0317C23.5264 17.8709 23.633 17.5902 23.6375 17.2865C23.6403 17.0998 23.6045 16.9203 23.5381 16.7685C23.5956 16.7311 23.6532 16.6938 23.7051 16.6606C24.1976 16.3437 24.9735 15.8449 25.357 14.8997C25.5063 14.969 25.6641 15.0045 25.8262 15.0015C26.3176 14.9937 26.7434 14.625 26.9381 14.0413C26.9438 14.0244 26.9494 14.0075 26.9542 13.9901C27.6142 13.9479 28.1695 13.2334 28.5205 12.7804C28.6058 12.6701 28.7192 12.5244 28.8082 12.4244C28.951 12.5454 29.1257 12.5786 29.2879 12.5009C29.5253 12.3882 29.6923 12.0701 29.7088 11.6984C29.7543 10.6604 30.8497 9.74295 31.8159 8.93209C32.2413 8.57605 32.7169 8.17423 33.133 7.71035C33.3105 7.66337 33.5379 7.49589 33.7016 6.99768L33.7045 6.98624C33.9266 7.26456 34.1998 7.22902 34.3439 7.20431C34.6224 7.22058 34.8751 6.9501 34.95 6.54105C34.9761 6.39827 34.9701 6.2567 34.9512 6.11995C35.0204 5.8856 35.0296 5.61691 34.9548 5.37655L34.76 4.7199C34.69 4.48255 34.5552 4.30182 34.3898 4.22411C34.288 4.17591 34.1801 4.16988 34.0783 4.20362C34.0715 4.20543 34.0658 4.21206 34.0594 4.21507C34.0304 4.11627 34.0039 4.01807 33.966 3.91626C33.9121 3.76988 33.8316 3.64879 33.7338 3.56686C32.7133 2.70901 32.0421 2.54694 31.4324 2.74816C31.0436 2.87648 30.6799 3.15359 30.2666 3.49215C29.8215 3.85602 29.3177 4.26869 28.5591 4.61629C28.3897 4.694 28.2613 4.88075 28.1925 5.11329C28.1474 5.11329 28.1019 5.10546 28.0589 5.11992C27.8798 5.17895 27.7261 5.36149 27.6448 5.61933C27.446 5.54523 27.2082 5.53739 26.98 5.78018C26.9228 5.83982 26.875 5.90729 26.8347 5.98018C26.784 5.9844 26.7297 5.99284 26.6786 6.01573C26.4661 6.09465 26.1735 6.33622 25.9872 7.04106C25.9631 7.13264 25.9498 7.22721 25.9462 7.323C25.8922 7.38143 25.8371 7.44047 25.7876 7.49289C25.4371 7.86759 24.9928 8.3417 24.7143 8.90015C24.6741 8.90015 24.631 8.90377 24.5848 8.91883C24.4544 8.9616 24.3071 9.07847 24.1831 9.35258C24.1755 9.37005 24.1642 9.39655 24.1437 9.42908C24.0958 9.5062 24.062 9.59536 24.0355 9.68753C23.9888 9.68391 23.9345 9.68512 23.8697 9.7062C23.8451 9.71464 23.8186 9.7297 23.7924 9.74416C23.7393 9.71704 23.6837 9.69897 23.6262 9.69535C23.4214 9.68331 23.2254 9.82789 23.1071 10.0797C23.0362 10.2315 22.9855 10.4086 22.9441 10.6153C22.2531 10.9508 21.4113 11.8249 20.7203 12.5418C20.6459 12.6189 20.5646 12.7039 20.4829 12.7876C20.2193 12.5442 19.8736 12.64 19.6853 13.0129C19.5364 13.3093 19.3971 13.3461 19.016 13.4075C18.6679 13.4653 18.2156 13.5388 17.7625 14.0099C17.5335 13.9178 17.2711 13.9154 17.0542 14.2383C17.0402 14.2587 17.0265 14.281 17.0128 14.3051C16.9061 14.3232 16.8031 14.3865 16.7158 14.4895C16.4574 14.7907 16.3327 15.1401 16.3444 15.5269C16.3468 15.6088 16.3548 15.6847 16.3677 15.7552C16.344 15.7823 16.3218 15.8124 16.3005 15.8431C16.276 15.8492 16.2514 15.8558 16.2261 15.866C16.1576 15.8919 16.0969 15.9064 16.0421 15.9196C15.8011 15.9769 15.6164 16.0811 15.4711 16.2377C15.4152 16.21 15.356 16.1937 15.2948 16.1919C14.7705 16.1745 14.4264 16.4769 14.2683 17.0968C14.2244 17.0667 14.1781 17.0414 14.1282 17.0209C13.6687 16.8323 13.2715 17.2028 12.8952 17.6823C12.8851 17.6739 12.8767 17.6625 12.8658 17.6552C12.7443 17.5703 12.6091 17.5498 12.4815 17.592C12.4187 17.6131 12.3576 17.6486 12.3012 17.6998C12.0566 17.9191 11.97 18.2137 11.9403 18.4221C11.9153 18.5962 11.9278 18.7468 11.9507 18.8836C11.764 19.0643 11.6268 19.1149 11.5254 19.0095C11.401 18.8782 11.2537 18.8294 11.1113 18.8529C10.9672 18.6486 10.7664 18.5559 10.5708 18.6209C10.5434 18.63 10.5165 18.6414 10.4899 18.6565C10.3004 18.7625 10.1881 18.9529 10.1173 19.0872C9.98488 19.0553 9.84484 19.086 9.72009 19.1944C9.44483 19.4324 9.3406 19.9505 9.48145 20.3764C9.55268 20.5921 9.14865 21.0927 8.9072 21.3921C8.73013 21.6108 8.51081 21.8825 8.36272 22.203C8.23435 22.0999 8.08786 22.0656 7.94822 22.112C7.89672 22.1289 7.84641 22.1566 7.79812 22.1939C7.55707 22.3831 7.42025 22.7409 7.44077 23.1271C7.45123 23.3205 7.4955 23.4711 7.55505 23.5946C7.54781 23.6361 7.53453 23.6765 7.53051 23.7187C7.52528 23.7705 7.53292 23.8193 7.53373 23.8699C7.45123 23.9596 7.36632 24.044 7.27658 24.1187C7.1305 24.0126 6.97677 23.9861 6.83753 24.0319C6.78361 24.05 6.7317 24.0771 6.68381 24.1127C6.53693 24.2211 6.42868 24.4127 6.37837 24.6392C5.91639 24.8223 5.37312 24.9542 4.71355 25.1133L4.1244 25.2573C4.08175 25.2693 4.03788 25.2862 3.99683 25.3115C3.68697 25.4988 3.50105 25.6 3.40286 25.6494C3.27811 25.6988 3.01935 25.829 2.92598 26.2802L2.84671 26.3007C2.83786 26.3031 2.82861 26.3055 2.81975 26.3085C2.55576 26.3953 2.36099 26.7368 2.34731 27.1447C2.34208 27.2989 2.37064 27.4417 2.4125 27.5736C1.65272 27.767 1.23582 27.9085 1.30141 28.7513C1.34608 29.3273 1.59518 29.505 1.91027 29.5441ZM38.0687 49.6646C38.185 49.7941 38.2583 49.9755 38.2917 50.1465L37.942 49.9152L38.0687 49.6646ZM38.3082 50.2634C38.315 50.3327 38.3146 50.3972 38.3078 50.4538C38.2989 50.4893 38.2748 50.5436 38.2365 50.5978L37.9379 50.4688L37.9037 49.9905L37.9379 49.923L38.3082 50.2634ZM34.5548 5.71692C34.5648 5.7362 34.5705 5.75728 34.5789 5.77716C34.5564 5.81512 34.5343 5.84524 34.5206 5.8591L34.5194 5.8603L34.4626 5.71873L34.4634 5.71813L34.5258 5.67596C34.5355 5.69101 34.5463 5.70066 34.5548 5.71692ZM11.2702 36.3154L11.2658 36.3166L11.2223 35.975C11.3209 35.9907 11.4163 36.0046 11.5056 36.016C11.4433 36.1865 11.3402 36.2925 11.2702 36.3154ZM33.7532 46.6103L33.7636 46.7802L33.6179 46.7097C33.6622 46.6591 33.7109 46.6223 33.7532 46.6103ZM27.6057 41.9005C27.6005 41.8975 27.5965 41.8927 27.5913 41.8897C27.5965 41.8915 27.6025 41.8927 27.607 41.8945L27.6057 41.9005ZM15.9906 30.9147C16.0059 30.9189 16.0212 30.9225 16.0361 30.9279L15.9882 31.011C15.9822 30.9743 15.9721 30.9466 15.9649 30.9135C15.9737 30.9153 15.9814 30.9128 15.9906 30.9147ZM12.89 30.0779C12.8863 30.0755 12.8811 30.0713 12.8775 30.0695L12.8779 30.0682C12.8859 30.0574 12.8956 30.0442 12.9041 30.0333C12.8988 30.0478 12.8948 30.0628 12.89 30.0779ZM16.0776 24.5735C16.092 24.5362 16.1073 24.5006 16.1186 24.459H16.123C16.1411 24.4928 16.1516 24.5229 16.1733 24.5584C16.2224 24.559 16.2558 24.5482 16.2796 24.5295C16.2578 24.5422 16.2361 24.5609 16.2152 24.5675C16.1653 24.5844 16.1198 24.5819 16.0776 24.5735ZM16.3424 24.4922C16.3226 24.5103 16.3029 24.5157 16.2832 24.5277C16.3202 24.4964 16.325 24.4416 16.3194 24.3801C16.3979 24.3253 16.4691 24.253 16.5255 24.1542C16.4937 24.2783 16.4426 24.4048 16.3424 24.4922ZM10.3986 19.274C10.3897 19.2631 10.3817 19.2517 10.3724 19.2414C10.3772 19.2336 10.3817 19.2258 10.3865 19.2185L10.3986 19.274Z"
              fill="#535353"
            ></path>
            <path
              d="M2.07345 3.07558C2.12901 3.00935 2.17449 2.9304 2.20948 2.84307C2.23162 2.79665 2.25094 2.74789 2.26623 2.69784C2.41311 2.21776 2.25414 1.77798 2.15917 1.51528L2.14428 1.47376C2.06904 1.193 1.90365 0.98458 1.70202 0.924949C1.61872 0.899634 1.53422 0.90206 1.45414 0.92855C1.31732 0.973761 1.19257 1.08939 1.10404 1.26351C0.784112 1.89123 1.03362 2.66598 1.2662 3.00573C1.48391 3.32441 1.83523 3.35876 2.07345 3.07558ZM1.5644 1.4858C1.7093 1.4358 1.86221 1.48159 1.97286 1.56348L1.60989 1.79424L1.5644 1.4858ZM1.61067 1.80027L2.04609 1.62797C2.08474 1.66833 2.11572 1.71227 2.13705 1.75509C2.14712 1.78341 2.15838 1.84362 2.15998 1.92138L1.8948 2.16474L1.61791 1.84904L1.61067 1.80027Z"
              fill="#535353"
            ></path>
          </svg>
